<svg width="24" height="24" viewBox="0 0 24 24" fill="none" xmlns="http://www.w3.org/2000/svg">
<path d="M19.6909 19.6898C21.3018 18.0789 19.1649 13.3302 14.9179 9.08321C10.671 4.83625 5.92226 2.69932 4.31135 4.31024C2.70043 5.92115 4.83737 10.6699 9.08432 14.9168C13.3313 19.1638 18.08 21.3007 19.6909 19.6898Z" stroke="white" stroke-width="2" stroke-linecap="round" stroke-linejoin="round"/>
<path d="M14.9179 14.9168C19.1649 10.6698 21.3018 5.9211 19.6909 4.31019C18.08 2.69928 13.3313 4.83621 9.08432 9.08316C4.83737 13.3301 2.70043 18.0789 4.31135 19.6898C5.92226 21.3007 10.671 19.1637 14.9179 14.9168Z" stroke="white" stroke-width="2" stroke-linecap="round" stroke-linejoin="round"/>
<path d="M12 13.125C12.6213 13.125 13.125 12.6213 13.125 12C13.125 11.3787 12.6213 10.875 12 10.875C11.3787 10.875 10.875 11.3787 10.875 12C10.875 12.6213 11.3787 13.125 12 13.125Z" fill="white"/>
</svg>
