<svg width="24" height="24" viewBox="0 0 24 24" fill="none" xmlns="http://www.w3.org/2000/svg">
<path d="M13 2.75C13.6904 2.75 14.25 3.30964 14.25 4V22C14.25 22.6904 13.6904 23.25 13 23.25C12.3096 23.25 11.75 22.6904 11.75 22V4C11.75 3.30964 12.3096 2.75 13 2.75ZM6 11.25C6.69036 11.25 7.25 11.8096 7.25 12.5V17C7.25 17.6904 6.69036 18.25 6 18.25C5.30964 18.25 4.75 17.6904 4.75 17V12.5C4.75 11.8096 5.30964 11.25 6 11.25ZM20 7.25C20.6904 7.25 21.25 7.80964 21.25 8.5V17C21.25 17.6904 20.6904 18.25 20 18.25C19.3096 18.25 18.75 17.6904 18.75 17V8.5C18.75 7.80964 19.3096 7.25 20 7.25ZM5.50098 2C5.61897 2.00015 5.73315 2.04198 5.82324 2.11816C5.91349 2.19468 5.97374 2.30126 5.99316 2.41797C6.13266 3.25297 6.40149 3.81798 6.79199 4.20898C7.18249 4.59938 7.74815 4.86736 8.58301 5.00684C8.69935 5.02661 8.80468 5.08759 8.88086 5.17773C8.95704 5.26795 8.99902 5.38191 8.99902 5.5C8.99902 5.61809 8.95704 5.73205 8.88086 5.82227C8.80468 5.91241 8.69935 5.97339 8.58301 5.99316C7.74815 6.13264 7.18298 6.40062 6.79199 6.79102C6.40149 7.18152 6.13266 7.74703 5.99316 8.58203C5.97345 8.69849 5.91346 8.80462 5.82324 8.88086C5.73313 8.95693 5.6189 8.99893 5.50098 8.99902C5.38287 8.99902 5.26796 8.95707 5.17773 8.88086C5.08751 8.80461 5.02753 8.6985 5.00781 8.58203C4.86834 7.74717 4.60035 7.18201 4.20996 6.79102C3.81952 6.40058 3.25374 6.13268 2.41895 5.99316C2.30245 5.97346 2.19638 5.91251 2.12012 5.82227C2.04398 5.73206 2.00195 5.61805 2.00195 5.5C2.00195 5.38195 2.04398 5.26794 2.12012 5.17773C2.19638 5.08749 2.30245 5.02654 2.41895 5.00684C3.25374 4.86732 3.81902 4.59942 4.20996 4.20898C4.60035 3.81849 4.86834 3.25283 5.00781 2.41797L5.0166 2.37305C5.04465 2.26619 5.10785 2.17199 5.19531 2.10449C5.28287 2.03697 5.3904 1.99994 5.50098 2Z" fill="white"/>
</svg>
