<svg width="24" height="24" viewBox="0 0 24 24" fill="none" xmlns="http://www.w3.org/2000/svg">
<path d="M8.25 3.25H5.25C4.14543 3.25 3.25 4.14543 3.25 5.25V8.25C3.25 9.35457 4.14543 10.25 5.25 10.25H8.25C9.35457 10.25 10.25 9.35457 10.25 8.25V5.25C10.25 4.14543 9.35457 3.25 8.25 3.25Z" stroke="white" stroke-width="2" stroke-linecap="round" stroke-linejoin="round"/>
<path d="M20.7855 5.33583L18.6642 3.21451C17.8832 2.43346 16.6168 2.43346 15.8358 3.21451L13.7145 5.33583C12.9334 6.11688 12.9334 7.38321 13.7145 8.16425L15.8358 10.2856C16.6168 11.0666 17.8832 11.0666 18.6642 10.2856L20.7855 8.16425C21.5666 7.38321 21.5666 6.11688 20.7855 5.33583Z" stroke="white" stroke-width="2" stroke-linecap="round" stroke-linejoin="round"/>
<path d="M8.25 13.75H5.25C4.14543 13.75 3.25 14.6454 3.25 15.75V18.75C3.25 19.8546 4.14543 20.75 5.25 20.75H8.25C9.35457 20.75 10.25 19.8546 10.25 18.75V15.75C10.25 14.6454 9.35457 13.75 8.25 13.75Z" stroke="white" stroke-width="2" stroke-linecap="round" stroke-linejoin="round"/>
<path d="M18.75 13.75H15.75C14.6454 13.75 13.75 14.6454 13.75 15.75V18.75C13.75 19.8546 14.6454 20.75 15.75 20.75H18.75C19.8546 20.75 20.75 19.8546 20.75 18.75V15.75C20.75 14.6454 19.8546 13.75 18.75 13.75Z" stroke="white" stroke-width="2" stroke-linecap="round" stroke-linejoin="round"/>
</svg>
