<svg width="24" height="24" viewBox="0 0 24 24" fill="none" xmlns="http://www.w3.org/2000/svg">
<path d="M22 15C22 18.771 22 19.657 20.828 20.828C19.656 21.999 18.771 22 15 22M9 22C5.229 22 4.343 22 3.172 20.828C2.001 19.656 2 18.771 2 15M9 2C5.229 2 4.343 2 3.172 3.172C2.001 4.344 2 5.229 2 9M15 2C18.771 2 19.657 2 20.828 3.172C21.999 4.344 22 5.229 22 9" stroke="white" stroke-width="2" stroke-linecap="round"/>
<path d="M13.0703 18.1406C12.9089 18.1406 12.7604 18.1042 12.625 18.0312C12.4948 17.9583 12.349 17.8438 12.1875 17.6875L8.51562 14.1562C8.31771 13.9583 8.17448 13.7891 8.08594 13.6484C7.9974 13.5026 7.95312 13.3333 7.95312 13.1406V13.0547C7.95312 12.7682 8.04688 12.5495 8.23438 12.3984C8.42188 12.2474 8.65885 12.1719 8.94531 12.1719H10.4922C11.2161 12.1719 11.7552 12.0104 12.1094 11.6875C12.4688 11.3646 12.6484 10.9036 12.6484 10.3047C12.6484 9.72135 12.4609 9.26562 12.0859 8.9375C11.7161 8.60417 11.1719 8.4375 10.4531 8.4375H8.64844C8.42969 8.4375 8.25521 8.3724 8.125 8.24219C7.99479 8.11198 7.92969 7.9349 7.92969 7.71094V7.64062C7.92969 7.41667 7.99479 7.23958 8.125 7.10938C8.26042 6.97396 8.4349 6.90625 8.64844 6.90625H11.0469C11.7865 6.90625 12.4297 7.03906 12.9766 7.30469C13.5234 7.57031 13.9479 7.95573 14.25 8.46094C14.5521 8.96094 14.7031 9.5651 14.7031 10.2734C14.7031 10.6536 14.6328 11.0417 14.4922 11.4375C14.3568 11.8281 14.1458 12.1901 13.8594 12.5234C13.5729 12.8516 13.2031 13.1224 12.75 13.3359C12.3021 13.5495 11.763 13.6667 11.1328 13.6875L10.7422 13.6797L13.6562 16.4453C13.776 16.5599 13.8698 16.6823 13.9375 16.8125C14.0052 16.9375 14.0391 17.0703 14.0391 17.2109C14.0391 17.3932 13.9922 17.5547 13.8984 17.6953C13.8047 17.8307 13.6849 17.9375 13.5391 18.0156C13.3932 18.099 13.237 18.1406 13.0703 18.1406ZM16.1562 10.3047C16.1562 10.4245 16.1172 10.5234 16.0391 10.6016C15.9661 10.6797 15.8698 10.7188 15.75 10.7188H8.42188C8.30208 10.7188 8.20312 10.6797 8.125 10.6016C8.05208 10.5234 8.01562 10.4245 8.01562 10.3047C8.01562 10.1901 8.05208 10.0938 8.125 10.0156C8.20312 9.9375 8.30208 9.89844 8.42188 9.89844H15.75C15.8698 9.89844 15.9661 9.9375 16.0391 10.0156C16.1172 10.0938 16.1562 10.1901 16.1562 10.3047ZM16.1562 7.67969C16.1562 7.79427 16.1172 7.89323 16.0391 7.97656C15.9661 8.05469 15.8698 8.09375 15.75 8.09375H8.46875C8.35417 8.09375 8.25781 8.05469 8.17969 7.97656C8.10156 7.89844 8.0625 7.79948 8.0625 7.67969C8.0625 7.5651 8.10156 7.46875 8.17969 7.39062C8.25781 7.3125 8.35417 7.27344 8.46875 7.27344H15.75C15.8698 7.27344 15.9661 7.3125 16.0391 7.39062C16.1172 7.46354 16.1562 7.5599 16.1562 7.67969Z" fill="white"/>
</svg>
