<svg width="25" height="24" viewBox="0 0 25 24" fill="none" xmlns="http://www.w3.org/2000/svg">
<path d="M7.75 21.75C8.57843 21.75 9.25 21.0784 9.25 20.25C9.25 19.4216 8.57843 18.75 7.75 18.75C6.92157 18.75 6.25 19.4216 6.25 20.25C6.25 21.0784 6.92157 21.75 7.75 21.75Z" fill="white"/>
<path d="M17.5 21.75C18.3284 21.75 19 21.0784 19 20.25C19 19.4216 18.3284 18.75 17.5 18.75C16.6716 18.75 16 19.4216 16 20.25C16 21.0784 16.6716 21.75 17.5 21.75Z" fill="white"/>
<path d="M4.21562 6.75H21.0344L18.5594 15.4125C18.4711 15.7269 18.282 16.0036 18.0211 16.2C17.7603 16.3965 17.4422 16.5019 17.1156 16.5H8.13437C7.80783 16.5019 7.4897 16.3965 7.22886 16.2C6.96803 16.0036 6.77893 15.7269 6.69062 15.4125L3.29688 3.54375C3.25203 3.38696 3.1573 3.24905 3.02704 3.15093C2.89677 3.05282 2.73808 2.99983 2.575 3H1" stroke="white" stroke-width="2" stroke-linecap="round" stroke-linejoin="round"/>
</svg>
